<svg width="16" height="16" viewBox="0 0 16 16" fill="none" xmlns="http://www.w3.org/2000/svg">
<g clip-path="url(#clip0_571_2516)">
<mask id="mask0_571_2516" style="mask-type:luminance" maskUnits="userSpaceOnUse" x="0" y="0" width="16" height="16">
<path d="M16 0H0V16H16V0Z" fill="white"/>
</mask>
<g mask="url(#mask0_571_2516)">
<path d="M6.1089 13.3358C2.6979 14.3345 2.6979 11.6712 1.3335 11.3383M10.8843 14.6666V12.7565C10.9099 12.439 10.8659 12.1199 10.7554 11.8202C10.6448 11.5206 10.4702 11.2474 10.243 11.0187C11.3266 10.9009 12.4381 10.6399 13.272 9.94021C14.9671 8.51793 15.1607 5.44774 13.6131 3.86122C13.7602 3.47652 13.8328 3.07266 13.8314 2.6694C13.8302 2.33531 13.7782 2.00163 13.6758 1.6796C13.6404 1.56855 13.5991 1.4589 13.5517 1.35109C13.5517 1.35109 13.4317 1.31635 13.1772 1.34383C12.9332 1.37016 12.5657 1.45364 12.0619 1.6796C11.7298 1.82852 11.3385 2.03935 10.8843 2.3365C10.1025 2.1297 9.29956 2.0263 8.49661 2.0263C7.69365 2.0263 6.8907 2.1297 6.1089 2.3365C5.68245 2.0575 5.31145 1.85461 4.99285 1.70759C4.60796 1.52998 4.29955 1.43393 4.0623 1.38377C3.63826 1.29413 3.4415 1.35109 3.4415 1.35109C3.25684 1.77156 3.16339 2.22011 3.16182 2.6694C3.1604 3.07266 3.233 3.47652 3.3801 3.86122C1.91751 5.36054 2.01574 8.17901 3.4415 9.67764C4.29572 10.5755 5.54035 10.8921 6.75017 11.0387C6.52573 11.2651 6.35263 11.535 6.24214 11.831C6.13166 12.1269 6.08626 12.4423 6.1089 12.7565V14.6666" stroke="#55597D" stroke-width="1.5" stroke-linecap="round" stroke-linejoin="round"/>
</g>
</g>
<defs>
<clipPath id="clip0_571_2516">
<rect width="16" height="16" fill="white"/>
</clipPath>
</defs>
</svg>
