<svg width="16" height="12" viewBox="0 0 16 12" fill="none" xmlns="http://www.w3.org/2000/svg">
<path fill-rule="evenodd" clip-rule="evenodd" d="M2.84471 11.7369H3.21091V9.76906H2.78838L2.14049 10.6283L1.52078 9.76906H1.09824V11.7369H1.46444V10.2957L2.11232 11.1549H2.16866L2.84471 10.3234V11.7369ZM13.4362 9.76906H12.9855L13.7461 10.9331V11.7369H14.1123V10.9331L14.9292 9.76906H14.4785L13.9432 10.5728L13.4362 9.76906ZM12.9292 11.7092L12.3376 11.044C12.7038 10.9609 12.8447 10.6837 12.8447 10.4065C12.8447 10.0739 12.5911 9.76906 12.1123 9.76906C11.8024 9.76906 11.4644 9.76906 11.1545 9.76906V11.7369H11.5489V11.0717H11.9151L12.4785 11.7369H12.9292V11.7092ZM12.1123 10.1017C12.3376 10.1017 12.4503 10.2679 12.4503 10.4342C12.4503 10.6005 12.3658 10.7391 12.1123 10.7391H11.5489V10.1017H12.1123ZM10.8728 11.3766H9.74608V10.9331H10.8165V10.5728H9.74608V10.1294H10.8728V9.76906H9.35172C9.35172 10.4342 9.35172 11.0717 9.35172 11.7369H10.8728V11.3766ZM8.11229 11.7369H8.50665V10.1017H9.12637V9.76906C8.56299 9.76906 8.05595 9.76906 7.49258 9.76906V10.1017H8.11229V11.7369ZM7.23906 10.1017C7.09821 9.79677 6.78835 9.71362 6.45033 9.71362C6.08413 9.71362 5.68977 9.87992 5.68977 10.2679C5.68977 10.7114 6.05596 10.8223 6.4785 10.8777C6.73202 10.9054 6.9292 10.9886 6.9292 11.1549C6.9292 11.3766 6.70385 11.4598 6.4785 11.4598C6.22498 11.4598 5.99963 11.3766 5.91512 11.1549L5.60526 11.2935C5.74611 11.6538 6.05596 11.7923 6.4785 11.7923C6.9292 11.7923 7.32356 11.5983 7.32356 11.1549C7.32356 10.6837 6.9292 10.5728 6.50667 10.5451C6.25315 10.5174 6.05596 10.462 6.05596 10.2957C6.05596 10.1294 6.19681 10.0185 6.4785 10.0185C6.70385 10.0185 6.87286 10.1294 6.95737 10.2402L7.23906 10.1017ZM5.15456 11.7369H5.57709L4.67569 9.76906H4.25316L3.35175 11.7369H3.77429L3.9433 11.3766H4.98555L5.15456 11.7369ZM4.8447 11.0163H4.08414L4.47851 10.1848L4.8447 11.0163Z" fill="#55597D"/>
<path fill-rule="evenodd" clip-rule="evenodd" d="M12.5071 2.81237C12.0001 1.78686 10.9297 1.48198 9.88742 1.48198C9.38038 1.48198 8.87334 1.59285 8.45081 1.75915C8.16912 1.95316 7.97194 2.14717 7.85926 2.28576C7.94377 1.92544 8.14095 1.676 8.45081 1.5097V0.733643C7.18321 0.733643 6.25364 0.733643 5.01421 0.733643V2.03631H7.0142V5.00195C7.0142 6.13832 6.73251 7.02524 5.43674 7.02524C4.30999 7.02524 3.69027 6.52635 3.5776 5.52856H2.14098C2.33817 7.35784 3.6621 8.32791 5.43674 8.32791C6.30997 8.32791 6.73251 8.10618 7.23955 7.69044C7.15504 7.52414 7.0987 7.35784 7.07053 7.13611C7.15504 7.24697 7.26772 7.38556 7.38039 7.55185C7.94377 8.24476 8.84517 8.49421 9.91559 8.49421C10.31 8.49421 10.6761 8.46649 11.0142 8.35563L10.5071 8.05075L9.71841 7.60729V7.38556C9.07052 7.33012 8.45081 7.05296 8.14095 6.52635C8.30996 6.11061 8.42264 5.61171 8.42264 5.0851C8.87334 5.2514 9.38038 5.36227 9.91559 5.4177C10.0564 5.44541 10.1973 5.44541 10.3381 5.47313L10.5071 5.38998L11.2959 4.94652L12.0846 5.38998L12.6198 5.69486C12.2818 4.69707 11.1832 4.41991 10.0283 4.28133C9.21137 4.19818 8.53531 4.03188 8.53531 3.44984C8.53531 2.95095 8.98602 2.56292 9.91559 2.56292C10.648 2.56292 11.2677 2.92323 11.5212 3.31126L12.5071 2.81237Z" fill="#55597D"/>
<path fill-rule="evenodd" clip-rule="evenodd" d="M13.5211 8.60517C14 8.6606 14.5634 8.63288 14.9014 8.30029C15.2113 7.99541 15.2958 7.55195 15.2958 7.1362V5.72267C15.2958 5.16834 15.493 4.7526 16 4.66945V4.17056C15.493 4.08741 15.2958 3.64395 15.2958 3.11734V1.70381C15.2958 1.28806 15.2113 0.816885 14.9014 0.539721C14.5634 0.179409 14 0.179409 13.5211 0.234842V0.733736C14.169 0.678303 14.4507 1.03861 14.4507 1.75924V3.11734C14.4507 3.33907 14.4225 3.67166 14.507 3.89339C14.6197 4.11513 14.9014 4.28142 15.1549 4.42C14.9014 4.55859 14.6197 4.72488 14.507 4.94661C14.4225 5.16834 14.4507 5.50094 14.4507 5.72267V7.08077C14.4507 7.85683 14.1972 8.10627 13.5211 8.07856V8.60517Z" fill="#55597D"/>
<path fill-rule="evenodd" clip-rule="evenodd" d="M11.2958 4.53101L12.2535 5.08533L13.2113 5.61194V6.72059V7.82925L12.2535 8.38357L11.2958 8.9379L10.3099 8.38357L9.35212 7.82925V6.72059V5.61194L10.3099 5.08533L11.2958 4.53101ZM11.2958 4.94675L12.0845 5.39021L12.8451 5.83367V6.72059V7.60752L12.0845 8.05098L11.2958 8.52215L10.507 8.05098L9.71831 7.60752V6.72059V5.83367L10.507 5.39021L11.2958 4.94675Z" fill="url(#paint0_linear_571_2505)"/>
<path fill-rule="evenodd" clip-rule="evenodd" d="M10.169 6.91421V7.19138H9.97186V6.24902C10.1127 6.24902 10.2536 6.24902 10.4226 6.24902C10.8733 6.24902 10.8733 6.91421 10.4226 6.91421H10.169ZM11.1831 6.8865H11.0423V7.19138H10.8451V6.24902H10.8733C11.0141 6.24902 11.155 6.24902 11.2958 6.24902C11.493 6.24902 11.6338 6.35989 11.6338 6.58162C11.6338 6.7202 11.5775 6.83107 11.4366 6.85878L11.6902 7.16366V7.19138H11.4648L11.1831 6.8865ZM12.169 6.24902C12.4789 6.24902 12.6761 6.44304 12.6479 6.7202C12.6479 6.99736 12.4789 7.21909 12.169 7.21909C11.8873 7.21909 11.6902 7.02508 11.6902 6.7202C11.6902 6.44304 11.8873 6.24902 12.169 6.24902ZM10.169 6.44304V6.7202H10.4226C10.6197 6.7202 10.6197 6.44304 10.4226 6.44304H10.169ZM11.0423 6.44304V6.69248H11.2958C11.3803 6.69248 11.4366 6.66477 11.4366 6.58162C11.4366 6.49847 11.3803 6.44304 11.2958 6.44304H11.0423ZM12.169 6.41532C12 6.41532 11.8873 6.5539 11.8873 6.7202C11.8873 6.8865 12 7.02508 12.169 7.02508C12.3662 7.02508 12.4507 6.8865 12.4507 6.7202C12.4507 6.5539 12.3662 6.41532 12.169 6.41532Z" fill="#55597D"/>
<path fill-rule="evenodd" clip-rule="evenodd" d="M2.47886 8.60492C1.99999 8.66036 1.46478 8.63264 1.09859 8.30004C0.788728 7.99516 0.704221 7.5517 0.704221 7.13596V5.72243C0.704221 5.1681 0.535208 4.75236 0 4.66921V4.17031C0.535208 4.08716 0.704221 3.6437 0.704221 3.11709V1.70356C0.704221 1.28782 0.788728 0.81664 1.09859 0.539477C1.46478 0.179165 1.99999 0.179165 2.47886 0.234598V0.733491C1.83098 0.678059 1.57746 1.03837 1.57746 1.75899V3.11709C1.57746 3.33882 1.57746 3.67142 1.49295 3.89315C1.38027 4.11488 1.09859 4.28118 0.845066 4.41976C1.09859 4.55834 1.38027 4.72464 1.49295 4.94637C1.57746 5.1681 1.57746 5.5007 1.57746 5.72243V7.08053C1.57746 7.85658 1.80281 8.10603 2.47886 8.07831V8.60492Z" fill="#55597D"/>
<defs>
<linearGradient id="paint0_linear_571_2505" x1="9.44233" y1="6.76234" x2="13.2413" y2="6.76234" gradientUnits="userSpaceOnUse">
<stop stop-color="#4CA5FF"/>
<stop offset="1" stop-color="#B673F8"/>
</linearGradient>
</defs>
</svg>
