<svg width="20" height="21" viewBox="0 0 20 21" fill="none" xmlns="http://www.w3.org/2000/svg">
<rect x="3" y="3.1875" width="14" height="14" rx="1" fill="#68D1BF" stroke="#68D1BF" stroke-width="2"/>
<g clip-path="url(#clip0_809_8801)">
<path fill-rule="evenodd" clip-rule="evenodd" d="M14.773 6.743C14.9136 6.88365 14.9926 7.07438 14.9926 7.27325C14.9926 7.47213 14.9136 7.66286 14.773 7.8035L9.15151 13.425C9.07722 13.4993 8.98902 13.5583 8.89195 13.5985C8.79488 13.6387 8.69084 13.6594 8.58576 13.6594C8.48069 13.6594 8.37665 13.6387 8.27957 13.5985C8.1825 13.5583 8.0943 13.4993 8.02001 13.425L5.22701 10.6325C5.15538 10.5633 5.09824 10.4806 5.05894 10.3891C5.01963 10.2976 4.99894 10.1991 4.99808 10.0996C4.99721 9.99997 5.01619 9.90121 5.0539 9.80904C5.09161 9.71686 5.1473 9.63313 5.21772 9.56271C5.28814 9.49229 5.37188 9.4366 5.46405 9.39889C5.55622 9.36118 5.65498 9.3422 5.75456 9.34306C5.85415 9.34393 5.95256 9.36462 6.04407 9.40393C6.13557 9.44323 6.21833 9.50037 6.28751 9.572L8.58551 11.87L13.712 6.743C13.7817 6.67331 13.8644 6.61802 13.9554 6.5803C14.0464 6.54258 14.144 6.52316 14.2425 6.52316C14.341 6.52316 14.4386 6.54258 14.5296 6.5803C14.6207 6.61802 14.7034 6.67331 14.773 6.743Z" fill="#10121E"/>
</g>
<defs>
<clipPath id="clip0_809_8801">
<rect width="12" height="12" fill="white" transform="translate(4 4.1875)"/>
</clipPath>
</defs>
</svg>
