<svg width="16" height="16" viewBox="0 0 16 16" fill="none" xmlns="http://www.w3.org/2000/svg">
<g clip-path="url(#clip0_272_19477)">
<path d="M3.3335 9.99992H2.66683C2.31321 9.99992 1.97407 9.85944 1.72402 9.60939C1.47397 9.35935 1.3335 9.02021 1.3335 8.66658V2.66659C1.3335 2.31296 1.47397 1.97382 1.72402 1.72378C1.97407 1.47373 2.31321 1.33325 2.66683 1.33325H8.66683C9.02045 1.33325 9.35959 1.47373 9.60964 1.72378C9.85969 1.97382 10.0002 2.31296 10.0002 2.66659V3.33325M7.3335 5.99992H13.3335C14.0699 5.99992 14.6668 6.59687 14.6668 7.33325V13.3333C14.6668 14.0696 14.0699 14.6666 13.3335 14.6666H7.3335C6.59712 14.6666 6.00016 14.0696 6.00016 13.3333V7.33325C6.00016 6.59687 6.59712 5.99992 7.3335 5.99992Z" stroke="#ADB3CC" stroke-width="1.5" stroke-linecap="round" stroke-linejoin="round"/>
</g>
<defs>
<clipPath id="clip0_272_19477">
<rect width="16" height="16" fill="white"/>
</clipPath>
</defs>
</svg>
