<svg width="15" height="14" viewBox="0 0 15 14" fill="none" xmlns="http://www.w3.org/2000/svg">
<path fill-rule="evenodd" clip-rule="evenodd" d="M5.5969 6.48659C5.30524 6.48659 5.07462 6.71325 5.07462 6.99992C5.07462 7.27992 5.30524 7.51325 5.5969 7.51325H9.66667V10.6999C9.66667 12.3333 8.31686 13.6666 6.64826 13.6666H3.34496C1.68314 13.6666 0.333336 12.3399 0.333336 10.7066V3.29992C0.333336 1.65992 1.68993 0.333252 3.35175 0.333252H6.66182C8.31686 0.333252 9.66667 1.65992 9.66667 3.29325V6.48659H5.5969ZM12.0868 4.69339L14.0335 6.63339C14.1335 6.73339 14.1868 6.86005 14.1868 7.00005C14.1868 7.13339 14.1335 7.26672 14.0335 7.36005L12.0868 9.30005C11.9868 9.40005 11.8535 9.45339 11.7268 9.45339C11.5935 9.45339 11.4601 9.40005 11.3601 9.30005C11.1601 9.10005 11.1601 8.77339 11.3601 8.57339L12.4268 7.51339H9.6668V6.48672H12.4268L11.3601 5.42672C11.1601 5.22672 11.1601 4.90005 11.3601 4.70005C11.5601 4.49339 11.8868 4.49339 12.0868 4.69339Z" fill="#55597D"/>
</svg>
