<svg width="14" height="14" viewBox="0 0 14 14" fill="none" xmlns="http://www.w3.org/2000/svg">
<path fill-rule="evenodd" clip-rule="evenodd" d="M4.27595 1.16675H9.71845C11.7018 1.16675 12.8334 2.28675 12.8334 4.27591V9.72425C12.8334 11.7017 11.7076 12.8334 9.72428 12.8334H4.27595C2.28678 12.8334 1.16678 11.7017 1.16678 9.72425V4.27591C1.16678 2.28675 2.28678 1.16675 4.27595 1.16675ZM7.47845 7.48425H9.13511C9.40345 7.47842 9.61928 7.26258 9.61928 6.99425C9.61928 6.72591 9.40345 6.51008 9.13511 6.51008H7.47845V4.86508C7.47845 4.59675 7.26261 4.38091 6.99428 4.38091C6.72595 4.38091 6.51011 4.59675 6.51011 4.86508V6.51008H4.85928C4.73095 6.51008 4.60845 6.56258 4.51511 6.65008C4.42761 6.74341 4.37511 6.86533 4.37511 6.99425C4.37511 7.26258 4.59095 7.47842 4.85928 7.48425H6.51011V9.13508C6.51011 9.40341 6.72595 9.61925 6.99428 9.61925C7.26261 9.61925 7.47845 9.40341 7.47845 9.13508V7.48425Z" fill="white"/>
</svg>
