<svg width="14" height="14" viewBox="0 0 14 14" fill="none" xmlns="http://www.w3.org/2000/svg">
<path fill-rule="evenodd" clip-rule="evenodd" d="M4.27591 1.16675H9.71842C11.7017 1.16675 12.8334 2.28675 12.8334 4.27591V9.72425C12.8334 11.7017 11.7076 12.8334 9.72425 12.8334H4.27591C2.28675 12.8334 1.16675 11.7017 1.16675 9.72425V4.27591C1.16675 2.28675 2.28675 1.16675 4.27591 1.16675ZM7.47842 7.48425H9.13508C9.40341 7.47842 9.61925 7.26258 9.61925 6.99425C9.61925 6.72591 9.40341 6.51008 9.13508 6.51008H7.47842V4.86508C7.47842 4.59675 7.26258 4.38091 6.99425 4.38091C6.72591 4.38091 6.51008 4.59675 6.51008 4.86508V6.51008H4.85925C4.73091 6.51008 4.60841 6.56258 4.51508 6.65008C4.42758 6.74341 4.37508 6.86533 4.37508 6.99425C4.37508 7.26258 4.59091 7.47842 4.85925 7.48425H6.51008V9.13508C6.51008 9.40341 6.72591 9.61925 6.99425 9.61925C7.26258 9.61925 7.47842 9.40341 7.47842 9.13508V7.48425Z" fill="#42BBFF"/>
</svg>
