<svg width="14" height="14" viewBox="0 0 14 14" fill="none" xmlns="http://www.w3.org/2000/svg">
<path d="M6.99995 1.75C10.1453 1.75 12.7621 4.01333 13.311 7C12.7627 9.98667 10.1453 12.25 6.99995 12.25C3.85462 12.25 1.23779 9.98667 0.689453 7C1.23779 4.01333 3.85462 1.75 6.99995 1.75ZM6.99995 11.0833C8.18974 11.0832 9.34425 10.6792 10.2745 9.93736C11.2047 9.19555 11.8555 8.15992 12.1205 7C11.8548 5.84081 11.2037 4.80606 10.2736 4.06498C9.34352 3.32391 8.18948 2.92037 7.00024 2.92037C5.81101 2.92037 4.65697 3.32391 3.72687 4.06498C2.79677 4.80606 2.14566 5.84081 1.88004 7C2.14493 8.15983 2.79568 9.19538 3.72579 9.93718C4.65589 10.679 5.81026 11.0831 6.99995 11.0833ZM6.99995 9.625C6.30376 9.625 5.63608 9.34844 5.1438 8.85615C4.65151 8.36387 4.37495 7.69619 4.37495 7C4.37495 6.30381 4.65151 5.63613 5.1438 5.14384C5.63608 4.65156 6.30376 4.375 6.99995 4.375C7.69615 4.375 8.36382 4.65156 8.85611 5.14384C9.34839 5.63613 9.62495 6.30381 9.62495 7C9.62495 7.69619 9.34839 8.36387 8.85611 8.85615C8.36382 9.34844 7.69615 9.625 6.99995 9.625ZM6.99995 8.45833C7.38673 8.45833 7.75766 8.30469 8.03115 8.0312C8.30464 7.75771 8.45829 7.38677 8.45829 7C8.45829 6.61323 8.30464 6.24229 8.03115 5.9688C7.75766 5.69531 7.38673 5.54167 6.99995 5.54167C6.61318 5.54167 6.24225 5.69531 5.96876 5.9688C5.69526 6.24229 5.54162 6.61323 5.54162 7C5.54162 7.38677 5.69526 7.75771 5.96876 8.0312C6.24225 8.30469 6.61318 8.45833 6.99995 8.45833Z" fill="#55597D"/>
</svg>
